<svg xmlns="http://www.w3.org/2000/svg" viewBox="0 0 512 512" fill="none">
  <rect width="512" height="512" rx="112" fill="#1A1A1A"/>
  <rect x="96" y="128" width="320" height="288" rx="36" fill="#F7F6F3"/>
  <rect x="96" y="128" width="320" height="72" rx="36" fill="#A85F3F"/>
  <rect x="96" y="164" width="320" height="36" fill="#A85F3F"/>
  <circle cx="176" cy="128" r="20" fill="#F7F6F3"/>
  <circle cx="336" cy="128" r="20" fill="#F7F6F3"/>
  <rect x="160" y="112" width="16" height="48" rx="8" fill="#F7F6F3"/>
  <rect x="320" y="112" width="16" height="48" rx="8" fill="#F7F6F3"/>
  <rect x="152" y="248" width="48" height="48" rx="10" fill="#1A1A1A"/>
  <rect x="232" y="248" width="48" height="48" rx="10" fill="#1A1A1A"/>
  <rect x="312" y="248" width="48" height="48" rx="10" fill="#A85F3F"/>
  <rect x="152" y="328" width="48" height="48" rx="10" fill="#1A1A1A"/>
  <rect x="232" y="328" width="48" height="48" rx="10" fill="#A85F3F"/>
  <rect x="312" y="328" width="48" height="48" rx="10" fill="#1A1A1A"/>
</svg>
